<svg id="Слой_1" data-name="Слой 1" xmlns="http://www.w3.org/2000/svg" viewBox="0 0 300 300"><defs><style>.cls-1{fill:#fff;}</style></defs><title>200_200_ikonki_bokovoe_menu</title><path class="cls-1" d="M291.27,207.3A30.39,30.39,0,0,0,300,186.39a29.37,29.37,0,0,0-10.46-22.23A26.63,26.63,0,0,0,299,144c0-8.26-3.46-15.23-9.23-19.65,3.47-4.28,5.73-10.33,5.73-18.26,0-47.68-77.64-80.91-147.32-80.91C76.94,25.18,0,56.12,0,106.09,0,115,3.05,122.37,8.14,127a24.68,24.68,0,0,0-6.89,17A26,26,0,0,0,12.1,165a29.29,29.29,0,0,0-9.5,21.38,30.23,30.23,0,0,0,8.72,20.85,17.55,17.55,0,0,0-4.35,4c-4.84,6.16-4.59,14.06-3.63,18C11.58,258.73,30.44,275,56.44,275H245.72c26,0,45.38-16.89,53-45.74,1.63-4.38,1.28-11.69-2.54-17.18A17.69,17.69,0,0,0,291.27,207.3Zm-143-169c62.05,0,134.17,29.6,134.17,67.76,0,11.73-6.91,13-8.68,13.12l-251.38,0c-6.77,0-9.18-6.79-9.18-13.14C13.15,66.16,84.34,38.33,148.22,38.33Zm-123,94.05,249,0c7.08,0,11.66,4.57,11.66,11.64,0,5-3.71,12.44-11.66,12.44H26.06c-6.21,0-11.66-5.81-11.66-12.44C14.4,138,19.51,132.65,25.24,132.38Zm170.64,37.21S185.35,180,183.29,182c-1.47,1.43-4.54,1.72-6.68.84-3.06-1.27-29.85-13.23-29.85-13.23Zm90.36,55.69c-4.45,16.68-15.08,36.57-40.52,36.57H56.44c-20.13,0-33.74-12.18-40.38-36a8.89,8.89,0,0,1,1.25-6.52c1.15-1.46,3.27-2.2,6.3-2.2H278.75c3.21,0,5.42.79,6.58,2.34A7.21,7.21,0,0,1,286.24,225.28ZM269.69,204H33.06c-9.22-.44-17.31-8.66-17.31-17.59s8.05-16.54,17.39-16.8H118s50.91,22.6,55.43,24.62,12.6,1.61,17.44-3.14c6.08-6,21.25-21.48,21.25-21.48h57.17c9.53.26,17.57,8,17.57,16.8S278.85,203.46,269.69,204ZM136.54,63.76a9.86,9.86,0,1,1-9.86-9.86A9.86,9.86,0,0,1,136.54,63.76Zm27.6-9.86A9.86,9.86,0,1,0,174,63.76,9.86,9.86,0,0,0,164.14,53.9Zm22.09,28.82a9.86,9.86,0,1,0,9.86,9.86A9.86,9.86,0,0,0,186.23,82.72Zm-40.83,0a9.86,9.86,0,1,0,9.87,9.86A9.86,9.86,0,0,0,145.4,82.72Zm-40.83,0a9.86,9.86,0,1,0,9.86,9.86A9.86,9.86,0,0,0,104.57,82.72Z"/></svg>