<?xml version="1.0"?>
<svg xmlns="http://www.w3.org/2000/svg" xmlns:xlink="http://www.w3.org/1999/xlink" xmlns:svgjs="http://svgjs.com/svgjs" version="1.1" width="512" height="512" x="0" y="0" viewBox="0 0 496 496" style="enable-background:new 0 0 512 512" xml:space="preserve" class=""><g>
<g xmlns="http://www.w3.org/2000/svg">
	<g>
		<path d="M463.592,272c-4.04-52.632-47.352-94.344-100.648-95.848C349.232,133.392,309.424,104,264,104    c-22.6,0-43.784,7.336-61.104,19.904L148.48,15.072C143.832,5.776,134.488,0,124.096,0h-0.832C108.232,0,96,12.224,96,27.256    c0,4.392,1.08,8.768,3.112,12.648l68.144,130.088c-0.792,2.024-1.528,4.064-2.2,6.152c-5.192,0.144-10.28,0.664-15.256,1.552    L68.48,15.072C63.832,5.776,54.488,0,44.096,0h-0.832C28.232,0,16,12.224,16,27.256c0,4.392,1.08,8.768,3.112,12.648    l83.464,159.352C81.024,216.76,66.656,242.696,64.408,272H48v40c0,67.032,43.664,123.952,104,144.112V496h224v-39.888    c60.336-20.16,104-77.08,104-144.112v-40H463.592z M447.592,272h-16.064c-4-35.944-34.536-64-71.528-64s-67.536,28.056-71.528,64    h-16.064c4.056-44.784,41.768-80,87.592-80C405.824,192,443.536,227.216,447.592,272z M360,240c-19.32,0-35.472,13.768-39.192,32    H304.64c3.904-27.088,27.208-48,55.36-48s51.456,20.912,55.36,48h-16.168C395.472,253.768,379.32,240,360,240z M382.528,272    H337.48c3.312-9.288,12.112-16,22.528-16C370.424,256,379.216,262.712,382.528,272z M264,240.064    c-5.496-13.16-13.64-24.92-23.736-34.696C241.6,193.384,251.664,184,264,184s22.4,9.384,23.736,21.368    C277.64,215.144,269.496,226.904,264,240.064z M264,120c36.992,0,69.584,23.032,82.336,57.008    c-5.432,0.72-10.752,1.808-15.888,3.336c-1.192-2.848-2.536-5.664-4.08-8.336l-13.848,8c1.136,1.968,2.104,4.048,3,6.136    c-4.92,2.344-9.664,4.976-14.12,8.024C295.728,178.936,281.176,168,264,168c-17.176,0-31.728,10.936-37.384,26.168    c-4.456-3.056-9.208-5.688-14.12-8.024C221.304,165.392,241.384,152,264,152c11,0,21.648,3.184,30.784,9.208l8.808-13.36    C291.832,140.104,278.136,136,264,136c-29.24,0-55.208,17.4-66.44,44.344c-5.144-1.528-10.456-2.616-15.896-3.336    C194.416,143.032,227.008,120,264,120z M113.288,32.488c-0.84-1.616-1.288-3.416-1.288-5.232C112,21.048,117.048,16,123.264,16    h0.832c4.296,0,8.152,2.384,10.072,6.224l56.2,112.4c-5.36,5.376-10.144,11.328-14.248,17.816L113.288,32.488z M33.288,32.488    C32.448,30.872,32,29.072,32,27.256C32,21.048,37.048,16,43.264,16h0.832c4.296,0,8.152,2.384,10.072,6.224l79.8,159.608    c-6.336,2.2-12.384,4.984-18.104,8.32L33.288,32.488z M168,192c45.824,0,83.536,35.216,87.592,80h-16.064    c-4-35.944-34.536-64-71.528-64c-21.968,0-42.448,9.832-56.2,27l12.488,10c10.696-13.344,26.632-21,43.712-21    c28.152,0,51.456,20.912,55.36,48h-16.168c-3.72-18.232-19.872-32-39.192-32s-35.472,13.768-39.192,32h-16.192    c0.288-2.024,0.64-4.04,1.144-6.008l-15.496-3.984c-0.84,3.272-1.392,6.624-1.768,9.992H80.408    C84.464,227.216,122.176,192,168,192z M190.528,272H145.48c3.312-9.288,12.112-16,22.528-16S187.216,262.712,190.528,272z     M464,312c0,74.992-61.008,136-136,136v16c10.984,0,21.672-1.232,32-3.456V480H168v-19.456c10.328,2.224,21.016,3.456,32,3.456    h112v-16H200c-74.992,0-136-61.008-136-136v-24h400V312z" fill="#ffffff" data-original="#000000" style="" class=""/>
	</g>
</g>
<g xmlns="http://www.w3.org/2000/svg">
	<g>
		<path d="M100.32,341.696l-15.328,4.592c1.576,5.248,3.52,10.44,5.792,15.416l14.552-6.64    C103.368,350.752,101.68,346.248,100.32,341.696z" fill="#ffffff" data-original="#000000" style="" class=""/>
	</g>
</g>
<g xmlns="http://www.w3.org/2000/svg">
	<g>
		<path d="M110.968,365.696l-13.688,8.28C118.952,409.768,158.312,432,200,432v-16C163.328,416,130.04,397.192,110.968,365.696z" fill="#ffffff" data-original="#000000" style="" class=""/>
	</g>
</g>
<g xmlns="http://www.w3.org/2000/svg">
</g>
<g xmlns="http://www.w3.org/2000/svg">
</g>
<g xmlns="http://www.w3.org/2000/svg">
</g>
<g xmlns="http://www.w3.org/2000/svg">
</g>
<g xmlns="http://www.w3.org/2000/svg">
</g>
<g xmlns="http://www.w3.org/2000/svg">
</g>
<g xmlns="http://www.w3.org/2000/svg">
</g>
<g xmlns="http://www.w3.org/2000/svg">
</g>
<g xmlns="http://www.w3.org/2000/svg">
</g>
<g xmlns="http://www.w3.org/2000/svg">
</g>
<g xmlns="http://www.w3.org/2000/svg">
</g>
<g xmlns="http://www.w3.org/2000/svg">
</g>
<g xmlns="http://www.w3.org/2000/svg">
</g>
<g xmlns="http://www.w3.org/2000/svg">
</g>
<g xmlns="http://www.w3.org/2000/svg">
</g>
</g></svg>
