<svg xmlns="http://www.w3.org/2000/svg" viewBox="0 0 111.23 57.11"><defs><style>.cls-1{fill:#fff;}</style></defs><title>pasta</title><g id="Слой_2" data-name="Слой 2"><g id="Слой_1-2" data-name="Слой 1"><path class="cls-1" d="M111,9.09a1,1,0,0,0-1.4-.22L81.79,28.8v0L104.9,1.62a1.17,1.17,0,0,0-.06-1.41,1.17,1.17,0,0,0-1.42.06L81,26.65A14.94,14.94,0,0,0,58,21.5c-.17.14-.33.29-.49.43a15,15,0,0,0-27.83-.72c-.18-.2-.35-.4-.53-.59A15,15,0,0,0,3.51,30.11h2a13,13,0,0,1,25-3.76,12.87,12.87,0,0,0,.84,3.52c0,.08,0,.16,0,.24h1.48c0,.08,0,.16.07.24H1a1,1,0,0,0-1,1.08C1.06,45.11,18.49,50.65,25.7,51.34v2.76a3,3,0,0,0,3,3h30a3,3,0,0,0,3-3V51.35c7.4-.64,24.62-6,25.69-19.92a1,1,0,0,0-1-1.08H83.15L110.8,10.48A.94.94,0,0,0,111,9.09ZM68.52,30.35H63.3a5,5,0,0,1,8.31,0H68.52Zm5.36,0a7,7,0,0,0-12.85,0H58.9a9,9,0,0,1,17.12,0ZM58.39,23.82a13,13,0,0,1,21.14,4.52L78,30.1a11,11,0,0,0-21.21.25h-2a12.79,12.79,0,0,1,3.62-6.53ZM31.1,23.1a13,13,0,0,1,24.83.45,15.07,15.07,0,0,0-1.56,2.27A11,11,0,0,0,32.52,26,15,15,0,0,0,31.1,23.1Zm3.36,4a9,9,0,0,1,18,0,8.89,8.89,0,0,1-.61,3.24H49.64a6.91,6.91,0,0,0,.82-3.24,7,7,0,0,0-14,0,6.91,6.91,0,0,0,.82,3.24H35.07A8.89,8.89,0,0,1,34.46,27.11Zm5.23,3.24a5,5,0,0,1-1.23-3.24,5,5,0,0,1,10,0,5,5,0,0,1-1.23,3.24Zm21,19.06a1,1,0,0,0-1,1v3.7a1,1,0,0,1-1,1h-30a1,1,0,0,1-1-1v-3.7a1,1,0,0,0-1-1C20.9,49.19,4,44.55,2.12,32.35H85.27C83.41,44.63,66.49,49.22,60.66,49.41Z"/><path class="cls-1" d="M27.27,44.39a18.19,18.19,0,0,1-4.13-.7,1,1,0,1,0-.55,1.92,20.19,20.19,0,0,0,4.58.78h0a1,1,0,0,0,0-2Z"/><path class="cls-1" d="M18.35,42.22c-5.27-1-9.4-6.06-9.44-6.12a1,1,0,0,0-1.56,1.25C7.54,37.59,12,43,18,44.18l.19,0a1,1,0,0,0,.19-2Z"/><path class="cls-1" d="M29.41,30.11a11,11,0,0,0-21.9,0h2a9,9,0,0,1,17.88,0Z"/><path class="cls-1" d="M18.46,24.11a7,7,0,0,0-6.92,6h2a5,5,0,0,1,9.8,0h2A7,7,0,0,0,18.46,24.11Z"/></g></g></svg>