<svg id="Слой_1" data-name="Слой 1" xmlns="http://www.w3.org/2000/svg" viewBox="0 0 300 300"><defs><style>.cls-1{fill:#fff;}</style></defs><title>200_200_ikonki_bokovoe_menu</title><path class="cls-1" d="M286.1,143c-31.26-61-77.3-108-139.72-140.84C134.47-4.15,124.72,4.86,122,11.85c-9.52,24.78-91.29,231.56-93.91,238-3,7.38-1.56,23.91,15.67,23.91a20.1,20.1,0,0,0,11-3.39v6c0,12.18,11.19,21.29,21.2,21.29,10.87,0,22.52-8.56,22.52-21.29v-12a20.55,20.55,0,0,0,7.84,1.54c11.58,0,20.66-9.31,20.66-21.19,0-.84,1.69-1.88,1.69,1.7v30.27c0,13.71,8.78,23.28,21.35,23.28,12.39,0,21.05-9.87,21.05-24V223.13a.8.8,0,0,1,.49-.76l.68-.32C212,202,262.82,176.53,277.52,169.38S288.91,148.43,286.1,143ZM166.71,211.1a13.09,13.09,0,0,0-7.91,12V276c0,2.76-.64,11.75-8.79,11.75s-9.09-7.71-9.09-11v-30.3c0-6.61-5.77-15-13.68-15-6.84,0-12.53,6.19-12.53,13.31,0,5.52-4,8.93-8.4,8.93-4,0-5.46-3.23-10-3.23A10.37,10.37,0,0,0,86.21,261V276.4c0,5.42-5.63,9-10.26,9-3,0-8.94-3.37-8.94-9v-9.13c0-9.65-4.35-12.37-8.34-12.37s-8.17,3.59-10.58,5.18c-5,3.29-10.84.22-8.78-5.21,1.19-3.13,48.53-122.39,75.77-191.66,7.51,2.18,16,.7,16,.7,3.57-.26,8.81,2.73,10.66,5.85,0,0,6.46,11.13,11,18.33,8.79,14.08,22.63,19.53,37.57,25.1,3.63,1.35,8.17,7.11,9.49,10.59,2.92,7.7,4.06,27.27,21.53,40.4,6.28,4.72,15.63,11.63,15.63,11.63C206.09,191.23,166.71,211.1,166.71,211.1Zm106.09-53c-1.46.6-11.17,5.4-24.15,11.87-1-1.15-20.05-15.58-20.05-15.58-5.24-3.92-12.91-13.29-17-33.84-1.39-6.9-8.71-15.67-17-18.8-10.75-4.07-25.05-7.78-31.37-19.91-2-3.8-10.94-18.3-10.94-18.3-4.15-7-13.54-12.18-21.76-11.84,0,0-7.54,1.08-10.92.08,7.08-18,12.24-31.2,13.89-35.49.8-2.1,4.05-4.88,7.26-3.26,56.18,28.45,104.2,76.51,134.44,135.55C277.18,152.44,277,156.35,272.8,158.06ZM155.18,118.35A21.46,21.46,0,1,1,133.73,96.9,21.46,21.46,0,0,1,155.18,118.35Zm-21.45-10.42a10.43,10.43,0,1,0,10.41,10.42A10.43,10.43,0,0,0,133.73,107.93Zm50.09,64.58a21.46,21.46,0,1,1-21.45-21.46A21.46,21.46,0,0,1,183.82,172.51Zm-21.45-10.42a10.42,10.42,0,1,0,10.41,10.42A10.42,10.42,0,0,0,162.37,162.09Zm-50.1,53.7A18.39,18.39,0,1,1,93.88,197.4,18.39,18.39,0,0,1,112.27,215.79Zm-18.39-7.36a7.36,7.36,0,1,0,7.36,7.36A7.37,7.37,0,0,0,93.88,208.43ZM118.1,167a9.2,9.2,0,1,1-9.19-9.2A9.2,9.2,0,0,1,118.1,167Z"/></svg>