<svg id="Слой_1" data-name="Слой 1" xmlns="http://www.w3.org/2000/svg" viewBox="0 0 300 300"><defs><style>.cls-1{fill:#fff;stroke:#fff;stroke-miterlimit:10;stroke-width:2px;}</style></defs><title>200_200_ikonki_bokovoe_menu</title><rect class="cls-1" x="73.73" y="95.15" width="6.66" height="6.27" rx="3.07" ry="3.07" transform="translate(-36.29 45.85) rotate(-27.08)"/><path class="cls-1" d="M137.08,73.9l1.48,1.1a2.4,2.4,0,1,0,2.88-3.85L140,70a2.42,2.42,0,0,0-3.37.49h0A2.4,2.4,0,0,0,137.08,73.9Z"/><path class="cls-1" d="M296.53,149.71a6,6,0,0,0-4.51-2.06H279.46c1-11.93-1.56-22.69-7.26-30.6-2.65-3.67-12.3-15.57-26-15.57H246l-.67,0a41.42,41.42,0,0,0-7.62-24.4l-.12-.17a4.87,4.87,0,0,0-6.7-1l-9.13,6.48q-4.23-3.73-8.35-6.91A6.26,6.26,0,0,0,215,68.85l-7-19.68a6.23,6.23,0,0,0-8-3.8l-22.58,8a6.2,6.2,0,0,0-3.55,3.19,6,6,0,0,0-.41,1.14,40.45,40.45,0,0,0-10.87.72A47.49,47.49,0,0,0,154.46,61c-9.4-4.42-19.72-3.16-24.8,3.66a15,15,0,0,0-2.91,7.71,25.72,25.72,0,0,1-11.91-1.4l3.62-6.27a6.26,6.26,0,0,0-2.28-8.53L98.36,45.85a6.23,6.23,0,0,0-8.53,2.28L80.91,63.59a6.13,6.13,0,0,0-.83,2.84,36.68,36.68,0,0,0-12,5.88,38.12,38.12,0,0,0-10,11.13,42,42,0,0,0-4.26,1.87,35.31,35.31,0,0,0-15.63,15.16c-2.76,5.53-3.35,11.17-1.74,16.17a59.85,59.85,0,0,1-11-4.35c-6.91-3.28-13.43-6.37-18.7-2.4-2.52,1.9-4.17,5.17-4.63,9.23-.63,5.45,1,11.38,4.07,15.1,3.6,4.3,8.16,4.75,12.18,5.15,2.88.28,5.6.55,8.23,2.1a11.21,11.21,0,0,1,5,6.18H11.68a6,6,0,0,0-5.92,6.84,147.31,147.31,0,0,0,81.75,112,14.43,14.43,0,0,0,6.27,1.42H209.92a14.36,14.36,0,0,0,6.26-1.42h0a147.31,147.31,0,0,0,81.75-112A6,6,0,0,0,296.53,149.71ZM246,108.14h.19c10.51,0,18.4,9.79,20.57,12.81,4.86,6.74,7,16.14,6,26.7H159.87c1.61-2.53,3.79-5.54,7.28-7,2.89-1.24,4.91-.71,7.71,0s6.49,1.71,11,.08a14.53,14.53,0,0,0,2.31-1.08l.18.08,1.61-1.31.12-.11.56-.49.21-.2c.19-.18.37-.37.54-.56l.1-.11c.21-.22.4-.45.58-.68l.15-.19.42-.55.12-.16c.72-1,1.32-2.07,1.86-3,1.45-2.55,2.59-4.56,5.51-5.74,2.72-1.1,4.63-.57,7.27.16,3,.84,6.76,1.88,11.59-.12,4.31-1.78,6.13-4.55,7.88-7.23.48-.73,1-1.46,1.51-2.2a19.55,19.55,0,0,1,5.32-4.94l0,0c.46-.3.92-.58,1.39-.85l.44-.23c.33-.18.66-.36,1-.53l.52-.25L238,110l.51-.22c.42-.17.84-.32,1.26-.47l.46-.15,1-.29.38-.1A18.53,18.53,0,0,1,246,108.14ZM233.2,82.41a34.83,34.83,0,0,1,5.39,20.26h0a33.07,33.07,0,0,0-6.37,2.72l-.1,0c-.69.39-1.38.8-2.06,1.24a27.54,27.54,0,0,0-8.78,9.08c-1.52,2.33-2.45,3.73-4.85,4.73-2.72,1.12-4.63.59-7.27-.14-3-.83-6.73-1.87-11.54.08-.32.12-.63.26-.92.4-4.41,2.1-6.33,5.47-7.89,8.22-.28.48-.54.95-.81,1.39l0,.06c-.27.44-.55.86-.84,1.25h0a34.83,34.83,0,0,1-10.72-9ZM201.87,51.79l6.68,18.89-21.79,7.7-6.67-18.89ZM135,68.6c1.78-2.4,4.84-3.58,8.34-3.58a21.36,21.36,0,0,1,12.39,4.42C163.17,75,166.25,84,162.46,89.07s-13.29,4.71-20.73-.84A21.14,21.14,0,0,1,134,77.74C132.87,74.2,133.24,71,135,68.6ZM95.39,51.82l17.1,9.87L104,76.43l-17.1-9.87Zm9,24.82Zm-32.28,1a31.19,31.19,0,0,1,11.53-5.3L101,82.4h0a6.16,6.16,0,0,0,3.11.84,6.26,6.26,0,0,0,5.42-3.12l1.93-3.35a34.3,34.3,0,0,0,4.42,1.44,31.6,31.6,0,0,0,11.5.77c.06.24.13.47.2.71A29.16,29.16,0,0,0,154.07,99.3c5.59,0,10.63-2.09,13.73-6.24,5.7-7.65,2.82-19.59-6.3-27.51.82-.24,1.65-.45,2.5-.63a34.49,34.49,0,0,1,10.78-.46L180.62,81a6.23,6.23,0,0,0,8,3.81l17.75-6.28q4.78,3.49,9.79,7.84l-45.1,32a4.86,4.86,0,0,0-1.18,6.75l.05.07a41.55,41.55,0,0,0,9.64,9.67,25.31,25.31,0,0,1-3-.66c-3.13-.83-7-1.87-12,.28-4.78,2-7.75,5.76-9.72,8.73-.16-.17-.31-.34-.48-.5h0a27.25,27.25,0,0,0-9.2-5.75,27.12,27.12,0,0,0,3.2-12.87A27.47,27.47,0,0,0,93.42,123a7.5,7.5,0,0,1-5.12-.42,8.36,8.36,0,0,1-3.8-3.6c8-8.14,10.62-18.66,6.43-26.87-2.88-5.63-8.45-9.38-15.69-10.55a30.77,30.77,0,0,0-7.2-.29A31.35,31.35,0,0,1,72.06,77.65ZM175.3,121.31l-2.71,1.92,2.71-1.93Zm-38.09,13.62-1-.1-.79-.06-.9,0h-.73l-.83,0-.68,0-.77.08-.63.06-.73.11c-.19,0-.38.05-.56.09l-.73.13-.47.09-1.1.23c-2.65.56-4.25.89-6.59-.07-2.63-1.08-3.58-2.75-4.9-5.07-1.51-2.65-3.39-6-8.09-7.94h0l-.85-.33-.31-.1-.52-.16-.36-.1-.45-.12-.37-.08-.44-.08-.34-.06a4.43,4.43,0,0,0-.51-.06l-.25,0-.75-.06h-1c-.45,0-.89,0-1.31.09a20.81,20.81,0,0,1,41.45,2.69,20.54,20.54,0,0,1-3.15,11l-.46-.06ZM44.14,103.45a28.6,28.6,0,0,1,12.7-12.21A30.13,30.13,0,0,1,70.4,87.8a23.39,23.39,0,0,1,3.77.3c5.09.83,8.94,3.32,10.83,7,2.71,5.3,1,12.3-4.3,18.17a14.73,14.73,0,0,0-5.59-3.83c-5.88-2.33-11.61-1-15-.14a29.44,29.44,0,0,0-10.37,4.77l-.85.56a19.46,19.46,0,0,1-2.44,1.41,12.06,12.06,0,0,1-1.25.5l-.56.16c-.24.07-.48.15-.73.2h-.07l-.33-.59C41.6,112.64,41.83,108.07,44.14,103.45ZM30,135.72c-3.89-2.28-7.64-2.65-10.95-3-3.85-.38-5.95-.68-7.71-2.79-2-2.35-3-6.4-2.58-10.07.25-2.16,1-3.9,2-4.67,2.06-1.55,6.81.71,11.85,3.09,5.36,2.55,11.63,5.52,18.13,5.59l.06.07,1.33-.1a19.15,19.15,0,0,0,5.48-1.11l.06,0c.52-.19,1-.4,1.57-.64a31.14,31.14,0,0,0,4.15-2.46,22.88,22.88,0,0,1,8.23-3.83l.58-.14a25,25,0,0,1,6-.83,12.17,12.17,0,0,1,4.42.83,8.75,8.75,0,0,1,.92.42c.18.09.33.19.49.29l.29.17c.18.12.34.25.5.38l.19.14c.15.13.29.27.43.41l.18.18c.13.13.24.26.36.4l.2.25c.1.13.2.25.29.38l.24.34.24.36.23.37.21.34.07.13c.15.24.29.48.44.74.34.57.69,1.17,1.08,1.78l.45.75,0,0a14.66,14.66,0,0,0,6,5.14,13.75,13.75,0,0,0,8.17,1.1v.16l3.76-1.05.31-.08.89-.24.13,0,.84-.2.19,0,.69-.12.4,0,.46-.05c.21,0,.42,0,.63,0h.24c.27,0,.54,0,.81.07l.11,0a6.77,6.77,0,0,1,.87.19l.11,0a9.49,9.49,0,0,1,1,.36c2.62,1.1,3.57,2.78,4.89,5.09a22.72,22.72,0,0,0,3.06,4.44,14.07,14.07,0,0,0,5.1,3.5l.76.3.23.07.52.17.26.07.46.12.27.06.43.09.27,0,.41.06.27,0,.4,0,.26,0,.4,0h.56c.4,0,.78,0,1.17-.05l.14,0c.39,0,.77-.08,1.15-.14h.12c.39-.06.77-.13,1.15-.21h.07l1.19-.25a23,23,0,0,1,6.69-.66h0q.65,0,1.35.15h0c.49.07,1,.16,1.52.27a23.43,23.43,0,0,1,11.39,5.64h0l.16.16H38.59C37.4,143.4,35.17,138.76,30,135.72ZM213.28,260.53a7.73,7.73,0,0,1-3.36.75H93.78a7.73,7.73,0,0,1-3.36-.75,140.69,140.69,0,0,1-78-106.22H291.24A140.69,140.69,0,0,1,213.28,260.53Z"/></svg>